<?xml version="1.0" encoding="UTF-8" standalone="no"?>
<!-- Created with Inkscape (http://www.inkscape.org/) -->

<svg
   id="svg4847"
   sodipodi:docname="home-icon.svg"
   viewBox="-20 0 600.00002 749.99998"
   version="1.1"
   inkscape:version="1.2.2 (b0a8486541, 2022-12-01)"
   width="600"
   height="750"
   xmlns:inkscape="http://www.inkscape.org/namespaces/inkscape"
   xmlns:sodipodi="http://sodipodi.sourceforge.net/DTD/sodipodi-0.dtd"
   xmlns="http://www.w3.org/2000/svg"
   xmlns:svg="http://www.w3.org/2000/svg"
   xmlns:rdf="http://www.w3.org/1999/02/22-rdf-syntax-ns#"
   xmlns:cc="http://creativecommons.org/ns#"
   xmlns:dc="http://purl.org/dc/elements/1.1/">
  <defs
     id="defs8590" />
  <sodipodi:namedview
     id="base"
     bordercolor="#666666"
     inkscape:pageshadow="2"
     inkscape:window-y="0"
     fit-margin-left="0"
     pagecolor="#ffffff"
     inkscape:window-height="987"
     inkscape:window-maximized="1"
     inkscape:zoom="0.38062421"
     inkscape:window-x="1920"
     showgrid="false"
     borderopacity="1.0"
     inkscape:current-layer="layer1"
     inkscape:cx="369.13049"
     inkscape:cy="743.5155"
     fit-margin-top="0"
     fit-margin-right="0"
     fit-margin-bottom="0"
     inkscape:window-width="1280"
     inkscape:pageopacity="0.0"
     inkscape:document-units="px"
     inkscape:showpageshadow="0"
     inkscape:pagecheckerboard="true"
     inkscape:deskcolor="#d1d1d1"
     showborder="true" />
  <g
     id="layer1"
     inkscape:label="Layer 1"
     inkscape:groupmode="layer"
     transform="translate(-105.03,-121.31)">
    <path
       style="fill:#010101;stroke:none;stroke-width:1.18339"
       d="m 393.16958,162.19424 c -48.60717,65.3277 -84.61907,141.92963 -134.10674,199.42293 -2.85543,-11.83558 -22.38528,-7.3947 -24.99301,-13.24021 -2.6856,-6.72961 -1.72122,-15.78655 1.2187,-22.19731 8.8447,-13.86985 4.613,-15.99221 1.67742,-29.87867 -1.57244,-7.9123 -1.2071,-16.28112 -2.22298,-24.31986 -10.84249,1.70863 -6.55444,23.74424 -20.12633,22.01544 -3.92541,-1.0791 -13.78615,-8.45976 -15.49442,-4.4134 6.18204,6.98523 13.53228,20.77629 7.13175,29.64799 -6.13384,-18.15302 -36.8439,-26.05878 -51.93894,-8.32739 -6.69006,8.79967 -5.1921,25.746 -3.84478,36.12148 0.45033,4.36678 5.66878,22.773 0.21715,22.19332 -4.73752,-0.74142 -9.2944,-11.01162 -11.92651,-14.54988 -8.18788,-9.00779 -38.0979,-62.02752 -48.822964,-55.55843 -6.386782,9.78109 9.660829,41.32229 14.078934,47.48754 15.53476,21.24798 41.39466,24.7504 60.24327,41.53111 6.78107,6.03756 12.16757,13.56882 15.28677,22.12808 1.76006,4.82918 1.4548,10.85597 4.46769,15.15918 3.30357,5.23134 20.40091,11.71698 20.40589,15.7374 -26.85615,55.17638 -69.26071,100.64624 -89.88718,156.01898 14.58776,1.82278 42.6293,4.8131 69.48536,-2.08448 6.02078,73.03797 13.30968,146.81138 19.4559,214.01483 h 93.11037 c 2.45554,-10.28052 2.86802,-17.72093 5.17612,-31.96328 l 5.0377,-18.76101 c -0.11348,1.45101 0.7564,-23.07153 5.07297,-49.33464 -5.38283,-2.09257 -20.56946,-10.76876 -18.06621,-18.87904 1.13204,-11.20077 22.58867,-7.16694 38.88467,-4.17052 20.47947,-1.4023 22.1428,4.3244 53.32522,-14.61833 22.66681,-13.76974 42.757,-24.34093 59.93591,-25.26518 8.48114,7.562 17.97744,21.31898 23.69018,29.69818 6.72061,9.9427 17.5225,19.19058 21.95845,30.45548 5.74905,21.78993 -2.66243,52.36556 -16.43763,64.62139 7.84907,13.79215 7.64547,22.76833 7.64338,38.21695 H 628.0301 c 4.80422,-60.86502 3.3089,-121.15946 0.69485,-182.05166 l 51.41917,4.16919 c -8.44809,-74.33766 -54.67825,-117.3818 -65.40988,-170.93398 7.7133,-44.73832 35.75996,-89.47087 36.22602,-131.32737 -27.94218,3.55257 -54.66741,-40.23786 -77.76388,-37.20042 -20.27839,24.03238 -16.94122,54.1138 -23.1321,81.6078 C 494.02831,308.96006 447.79988,213.36128 393.16958,162.19424 Z M 197.91573,357.60686 c 5.35663,3.16228 10.39099,-0.0521 15.94634,3.04679 8.58115,8.66154 14.1161,21.99384 27.13459,24.58854 -5.16347,13.42805 -17.03504,26.86241 -25.01474,38.91189 -7.82336,-2.68844 -22.36095,-11.97792 -25.02016,-20.15077 -2.99272,-9.1985 -0.28921,-18.18023 -5.69725,-27.09926 -3.8884,-6.41221 -18.88756,-21.22902 -6.65675,-28.47006 7.421,-3.33391 13.7473,5.71836 19.30797,9.17287 z m 52.61481,6.21838 c 5.99243,3.77035 -0.66131,11.74251 -4.66992,13.77363 -6.77349,-2.49751 -9.43893,-6.81215 -9.03309,-14.59193 4.4825,0.14501 9.87468,-1.47652 13.70301,0.8183 z m 265.62813,172.8951 c 0.58715,7.38005 1.82982,21.39276 5.54798,27.72087 3.56945,6.07572 12.65929,8.03595 17.23697,13.57948 4.40122,5.33019 4.15971,11.96849 7.39911,17.7622 3.63339,6.49896 10.55311,10.66249 13.65008,17.37135 5.69364,12.33504 -4.36905,31.26668 -12.94979,40.02729 -7.08404,7.23206 -13.79295,-2.49296 -20.55247,-3.47824 -4.30533,-0.62749 -10.00963,5.04962 -12.49651,7.98536 -8.18787,6.62022 -13.79468,30.63686 -20.07069,34.67891 -5.10376,-22.06729 -30.40075,-35.54027 -34.55267,-55.5883 2.44202,-8.19237 9.84551,-15.59407 13.94593,-22.23537 11.15865,-18.14117 20.61833,-36.57501 28.66542,-56.28312 2.87044,-7.02982 6.00099,-19.22031 14.17664,-21.54043 z m 18.97006,58.40022 c -5.23018,2.88925 -2.79555,13.7774 3.62489,10.48799 3.26075,-2.19521 3.81109,-12.12892 -3.62489,-10.48799 z M 382.65992,752.10318 c -4.8226,-2.12064 -10.02188,5.85351 -10.8723,10.95605 0.28771,6.5987 -5.83894,22.75545 -23.08867,46.04366 h 106.31261 c -0.28907,-6.73727 -0.69485,-13.37656 -0.69485,-20.15077 0,-6.51927 -3.06859,-9.34905 -7.64339,-9.2258 -16.4366,-2.57962 -37.10471,-10.15438 -51.02154,-19.68116 -3.55051,-2.53268 -8.25158,-7.92377 -12.99186,-7.94198 z m -38.82494,11.83426 c -11.99318,13.85949 -20.76639,26.57818 -22.23532,45.16545 h 7.04491 c 11.43082,-10.71397 18.9532,-34.89746 15.19041,-45.16545 z"
       id="path5310"
       inkscape:connector-curvature="0"
       sodipodi:nodetypes="ccccccccccccccccccccccccccccsccccccccccccccccccccccccccccccccccccscccccccccccccccc" />
  </g>
  <metadata
     id="metadata8587">
    <rdf:RDF>
      <cc:Work>
        <dc:format>image/svg+xml</dc:format>
        <dc:type
           rdf:resource="http://purl.org/dc/dcmitype/StillImage" />
        <cc:license
           rdf:resource="http://creativecommons.org/publicdomain/zero/1.0/" />
        <dc:publisher>
          <cc:Agent
             rdf:about="http://openclipart.org/">
            <dc:title>Openclipart</dc:title>
          </cc:Agent>
        </dc:publisher>
      </cc:Work>
      <cc:License
         rdf:about="http://creativecommons.org/publicdomain/zero/1.0/">
        <cc:permits
           rdf:resource="http://creativecommons.org/ns#Reproduction" />
        <cc:permits
           rdf:resource="http://creativecommons.org/ns#Distribution" />
        <cc:permits
           rdf:resource="http://creativecommons.org/ns#DerivativeWorks" />
      </cc:License>
    </rdf:RDF>
  </metadata>
</svg>
